<svg width="146" height="120" viewBox="0 0 146 120" fill="none" xmlns="http://www.w3.org/2000/svg">
<path d="M119.666 91.423C120.698 72.7245 116.768 53.9602 102.376 40.065C89.3857 27.523 71.7618 25.1596 63.3774 43.6589C59.4083 52.416 60.841 65.2717 69.7113 70.8408C79.5935 77.0453 87.3223 67.4889 86.9998 60C86.2467 42.5087 56.6779 44.2536 36.4998 43.6589C12.6042 42.9547 0.852742 21.698 0.999778 21.6288" stroke="white" stroke-miterlimit="1.5" stroke-linecap="round" stroke-linejoin="round"/>
<path d="M136.351 77.7484C134.253 78.3209 132.627 79.6526 130.933 80.9029C125.372 85.0076 120.748 91.1069 119.633 97.8445C118.38 90.5721 114.171 81.5519 106.602 78.7139" stroke="white" stroke-miterlimit="1.5" stroke-linecap="round" stroke-linejoin="round"/>
</svg>
