<svg width="264" height="24" viewBox="0 0 264 24" fill="none" xmlns="http://www.w3.org/2000/svg">
<path d="M23.25 5.13282C22.406 5.49955 21.513 5.74116 20.5992 5.85001C21.5595 5.28769 22.2817 4.39434 22.6303 3.33751C21.7224 3.86841 20.7307 4.24092 19.6978 4.43907C19.2629 3.98322 18.7397 3.62059 18.1603 3.3732C17.5808 3.12581 16.9571 2.99884 16.327 3.00001C13.7761 3.00001 11.7117 5.03438 11.7117 7.5422C11.7099 7.89102 11.7499 8.23881 11.8308 8.57813C10.0016 8.49238 8.2104 8.02575 6.57187 7.2081C4.93333 6.39044 3.48351 5.23977 2.31516 3.8297C1.90527 4.52069 1.6885 5.30909 1.6875 6.11251C1.6875 7.68751 2.50922 9.0797 3.75 9.89532C3.01487 9.87787 2.29481 9.68331 1.65094 9.32813V9.38438C1.65094 11.5875 3.24469 13.4203 5.35406 13.8375C4.9574 13.9432 4.54864 13.9968 4.13812 13.9969C3.84683 13.9974 3.5562 13.9691 3.27047 13.9125C3.85687 15.7172 5.56359 17.0297 7.58531 17.0672C5.94252 18.3333 3.9256 19.0175 1.85156 19.0125C1.48341 19.012 1.11561 18.99 0.75 18.9469C2.85993 20.2942 5.31255 21.0068 7.81594 21C16.3172 21 20.9616 14.0766 20.9616 8.07188C20.9616 7.87501 20.9564 7.67813 20.947 7.48595C21.8485 6.84472 22.6283 6.04787 23.25 5.13282Z" fill="#818698"/>
<path fill-rule="evenodd" clip-rule="evenodd" d="M70.5 12.0635C70.5 6.26504 65.7984 1.56348 60 1.56348C54.2016 1.56348 49.5 6.26504 49.5 12.0635C49.5 17.3041 53.3391 21.648 58.3594 22.4364V15.0996H55.6927V12.0635H58.3594V9.75019C58.3594 7.1191 59.9273 5.66457 62.3255 5.66457C63.4744 5.66457 64.6763 5.86988 64.6763 5.86988V8.4541H63.3516C62.048 8.4541 61.6402 9.26316 61.6402 10.0947V12.0635H64.552L64.087 15.0996H61.6406V22.4374C66.6609 21.6494 70.5 17.3055 70.5 12.0635Z" fill="#818698"/>
<path d="M108 8.87579C106.28 8.87579 104.876 10.2797 104.876 12C104.876 13.7203 106.28 15.1242 108 15.1242C109.72 15.1242 111.124 13.7203 111.124 12C111.124 10.2797 109.72 8.87579 108 8.87579ZM117.37 12C117.37 10.7063 117.382 9.42423 117.309 8.13283C117.237 6.63283 116.895 5.30158 115.798 4.2047C114.699 3.10548 113.37 2.76564 111.87 2.69298C110.576 2.62033 109.294 2.63204 108.002 2.63204C106.709 2.63204 105.427 2.62033 104.135 2.69298C102.635 2.76564 101.304 3.10783 100.207 4.2047C99.1079 5.30392 98.7681 6.63283 98.6954 8.13283C98.6228 9.42658 98.6345 10.7086 98.6345 12C98.6345 13.2914 98.6228 14.5758 98.6954 15.8672C98.7681 17.3672 99.1103 18.6985 100.207 19.7953C101.306 20.8945 102.635 21.2344 104.135 21.307C105.429 21.3797 106.711 21.368 108.002 21.368C109.296 21.368 110.578 21.3797 111.87 21.307C113.37 21.2344 114.701 20.8922 115.798 19.7953C116.897 18.6961 117.237 17.3672 117.309 15.8672C117.384 14.5758 117.37 13.2938 117.37 12ZM108 16.807C105.34 16.807 103.193 14.6602 103.193 12C103.193 9.33986 105.34 7.19298 108 7.19298C110.66 7.19298 112.807 9.33986 112.807 12C112.807 14.6602 110.66 16.807 108 16.807ZM113.004 8.11876C112.383 8.11876 111.881 7.6172 111.881 6.99611C111.881 6.37501 112.383 5.87345 113.004 5.87345C113.625 5.87345 114.127 6.37501 114.127 6.99611C114.127 7.14359 114.098 7.28966 114.042 7.42595C113.985 7.56224 113.903 7.68607 113.798 7.79036C113.694 7.89464 113.57 7.97733 113.434 8.03368C113.298 8.09004 113.151 8.11895 113.004 8.11876Z" fill="#818698"/>
<path fill-rule="evenodd" clip-rule="evenodd" d="M153.429 8.969H157.143V10.819C157.678 9.755 159.05 8.799 161.111 8.799C165.062 8.799 166 10.917 166 14.803V22H162V15.688C162 13.475 161.465 12.227 160.103 12.227C158.214 12.227 157.429 13.572 157.429 15.687V22H153.429V8.969ZM146.57 21.83H150.57V8.799H146.57V21.83ZM151.143 4.55C151.143 4.88528 151.077 5.21724 150.947 5.52659C150.818 5.83594 150.629 6.11651 150.39 6.352C149.906 6.83262 149.252 7.10165 148.57 7.1C147.889 7.09954 147.236 6.8312 146.752 6.353C146.514 6.11671 146.325 5.83582 146.196 5.52643C146.067 5.21704 146.001 4.88522 146 4.55C146 3.873 146.27 3.225 146.753 2.747C147.237 2.26816 147.89 1.9997 148.571 2C149.253 2 149.907 2.269 150.39 2.747C150.872 3.225 151.143 3.873 151.143 4.55Z" fill="#818698"/>
<path d="M211.59 6.69C210.593 6.47079 209.692 5.94144 209.014 5.17789C208.337 4.41435 207.919 3.45587 207.82 2.44V2H204.37V15.67C204.371 16.2766 204.181 16.868 203.827 17.3604C203.472 17.8529 202.972 18.2215 202.397 18.414C201.822 18.6065 201.201 18.6131 200.622 18.4329C200.042 18.2527 199.535 17.8948 199.17 17.41C198.844 16.9808 198.644 16.4689 198.593 15.932C198.542 15.3951 198.643 14.8548 198.883 14.372C199.123 13.8892 199.494 13.4834 199.953 13.2003C200.412 12.9172 200.941 12.7681 201.48 12.77C201.778 12.7683 202.075 12.8121 202.36 12.9V9.4C202.028 9.35893 201.694 9.34222 201.36 9.35C200.129 9.38288 198.935 9.77393 197.923 10.4753C196.911 11.1766 196.126 12.1578 195.663 13.2986C195.201 14.4395 195.081 15.6905 195.318 16.8986C195.556 18.1066 196.14 19.2191 197 20.1C197.882 20.9962 199.01 21.6101 200.241 21.8638C201.472 22.1175 202.751 21.9994 203.915 21.5246C205.079 21.0498 206.075 20.2397 206.778 19.1973C207.48 18.1548 207.857 16.9271 207.86 15.67V8.67C209.252 9.66395 210.92 10.1956 212.63 10.19V6.79C212.294 6.79139 211.959 6.75787 211.63 6.69H211.59Z" fill="#818698"/>
<path d="M262.062 6.93984C261.942 6.49462 261.708 6.0886 261.382 5.76243C261.056 5.43625 260.651 5.20136 260.205 5.08125C258.567 4.64063 252 4.64062 252 4.64062C252 4.64062 245.433 4.64062 243.795 5.07891C243.349 5.19862 242.943 5.43339 242.618 5.75962C242.292 6.08586 242.057 6.49208 241.938 6.9375C241.5 8.57812 241.5 12 241.5 12C241.5 12 241.5 15.4219 241.938 17.0602C242.18 17.9648 242.892 18.6773 243.795 18.9188C245.433 19.3594 252 19.3594 252 19.3594C252 19.3594 258.567 19.3594 260.205 18.9188C261.11 18.6773 261.82 17.9648 262.062 17.0602C262.5 15.4219 262.5 12 262.5 12C262.5 12 262.5 8.57813 262.062 6.93984ZM249.914 15.1406V8.85938L255.352 11.9766L249.914 15.1406Z" fill="#818698"/>
</svg>
