<svg width="149" height="57" viewBox="0 0 149 57" fill="none" xmlns="http://www.w3.org/2000/svg">
<path d="M81.8877 27.4C81.8877 19.984 76.0197 14.296 68.7837 14.296C61.5477 14.296 55.6797 19.984 55.6797 27.4C55.6797 34.816 61.5477 40.504 68.7837 40.504C70.9077 40.504 72.9237 40 74.6877 39.136L77.3877 41.98L81.5277 38.308L79.0077 35.644C80.8077 33.412 81.8877 30.568 81.8877 27.4ZM68.7837 34.888C64.6797 34.888 61.4397 31.9 61.4397 27.4C61.4397 22.9 64.6797 19.912 68.7837 19.912C72.8877 19.912 76.1277 22.9 76.1277 27.4C76.1277 28.948 75.7317 30.316 75.0837 31.468L71.0517 27.184L66.9117 30.856L70.5477 34.708C69.9717 34.816 69.3957 34.888 68.7837 34.888ZM90.6705 33.16H103.451C103.595 32.476 103.667 31.756 103.667 31C103.667 25.564 99.7785 21.496 94.5225 21.496C88.8345 21.496 84.9465 25.636 84.9465 31C84.9465 36.364 88.7625 40.504 94.9185 40.504C98.3385 40.504 101.003 39.244 102.767 36.796L98.4465 34.312C97.7265 35.104 96.4665 35.68 94.9905 35.68C93.0105 35.68 91.3545 35.032 90.6705 33.16ZM90.5625 29.128C91.0665 27.292 92.4345 26.284 94.4865 26.284C96.1065 26.284 97.7265 27.04 98.3025 29.128H90.5625ZM112.098 33.16H124.878C125.022 32.476 125.094 31.756 125.094 31C125.094 25.564 121.206 21.496 115.95 21.496C110.262 21.496 106.374 25.636 106.374 31C106.374 36.364 110.19 40.504 116.346 40.504C119.766 40.504 122.43 39.244 124.194 36.796L119.874 34.312C119.154 35.104 117.894 35.68 116.418 35.68C114.438 35.68 112.782 35.032 112.098 33.16ZM111.99 29.128C112.494 27.292 113.862 26.284 115.914 26.284C117.534 26.284 119.154 27.04 119.73 29.128H111.99ZM139.64 21.496C137.228 21.496 135.464 22.324 134.276 23.692V14.8H128.876V40H134.276V38.308C135.464 39.676 137.228 40.504 139.64 40.504C144.356 40.504 148.244 36.364 148.244 31C148.244 25.636 144.356 21.496 139.64 21.496ZM138.56 35.392C136.076 35.392 134.276 33.7 134.276 31C134.276 28.3 136.076 26.608 138.56 26.608C141.044 26.608 142.844 28.3 142.844 31C142.844 33.7 141.044 35.392 138.56 35.392Z" fill="white"/>
<path d="M26.8918 7.00269L38.9199 27.836H14.8637L26.8918 7.00269Z" fill="white"/>
<path d="M13.8918 29.0027L25.9199 49.836H1.86369L13.8918 29.0027Z" fill="white"/>
<path d="M38.9055 28.9621L26.758 49.726L14.8497 28.824L38.9055 28.9621Z" fill="white"/>
<path d="M13.8914 27.7791L1.86127 6.94691L25.9175 6.94461L13.8914 27.7791Z" fill="#52FFE0"/>
</svg>
