<svg width="200" height="200" viewBox="0 0 200 200" fill="none" xmlns="http://www.w3.org/2000/svg">
<g filter="url(#filter0_b_404_1088)">
<circle cx="100" cy="100" r="100" fill="#818698" fill-opacity="0.2"/>
</g>
<path d="M130.872 22.1076L128.037 30.0318L123.671 19.5316L119.995 18.2166L116.222 28.7622L118.934 29.7323L121.763 21.8231L126.12 32.3029L129.811 33.6232L133.583 23.0776L130.872 22.1076Z" fill="white"/>
<path d="M153.365 38.0401L154.818 36.1095L145.357 28.9911L138.623 37.9408L140.924 39.6723L143.031 36.8723L149.424 41.6821L150.886 39.7387L144.493 34.929L146.205 32.6532L153.365 38.0401Z" fill="white"/>
<path d="M171.976 55.3605L163.829 44.2711L161.882 45.7014L165.103 50.0856L158.024 55.2859L159.729 57.607L166.808 52.4066L170.029 56.7909L171.976 55.3605Z" fill="white"/>
<path d="M185.835 98.1618L185.374 94.3012L176.971 90.5824L184.264 84.9912L183.803 81.1305L172.682 82.4571L173.023 85.3168L180.649 84.4072L173.575 89.9401L173.821 92.0054L181.998 95.719L174.372 96.6287L174.714 99.4884L185.835 98.1618Z" fill="white"/>
<path d="M171.905 121.899L171.167 124.997L183.404 121.957L184.305 118.174L174.748 109.961L174.014 113.043L176.055 114.762L174.502 121.284L171.905 121.899ZM177.892 116.302L181.783 119.58L176.836 120.738L177.892 116.302Z" fill="white"/>
<path d="M167.081 148.951C169.21 150.254 171.499 149.61 172.827 147.44L177.421 139.934L167.867 134.088L166.364 136.544L168.916 138.106L166.494 142.064L162.998 142.044L161.228 144.937L165.144 144.914C164.864 146.506 165.526 147.999 167.081 148.951ZM173.857 141.129L171.184 145.497C170.733 146.234 170.031 147.38 168.585 146.495C167.152 145.618 167.853 144.471 168.304 143.734L170.977 139.367L173.857 141.129Z" fill="white"/>
<path d="M151.315 171.157L154.638 168.323L156.943 158.722L160.712 163.141L162.904 161.272L155.635 152.751L153.444 154.62L154.835 156.251L153.848 160.395L147.078 160.051L144.046 162.636L153.247 162.969L151.315 171.157Z" fill="white"/>
<path d="M128.532 180.814L129.424 182.922L140.328 178.31L135.966 167.994L125.061 172.606L125.952 174.713L134.205 171.223L135.09 173.316L126.837 176.806L127.647 178.722L135.9 175.232L136.785 177.324L128.532 180.814Z" fill="white"/>
<path d="M104.162 188.103L117.842 186.622L117.581 184.22L112.173 184.806L111.227 176.073L108.364 176.383L109.31 185.116L103.901 185.701L104.162 188.103Z" fill="white"/>
<path d="M82.8422 186.371L91.4778 188.064L93.6326 177.073L90.8064 176.519L90.2307 179.455L84.4213 178.317C81.9248 177.827 79.9056 179.062 79.4254 181.511C78.9452 183.96 80.3457 185.882 82.8422 186.371ZM84.7416 180.841L89.7659 181.826L89.1164 185.139L84.0921 184.154C83.2442 183.988 81.9253 183.729 82.2516 182.065C82.5748 180.417 83.8937 180.675 84.7416 180.841Z" fill="white"/>
<path d="M68.4223 172.731L64.3931 180.536L66.9523 181.857L72.0897 171.905L61.8531 166.621L60.7449 168.767L68.4223 172.731Z" fill="white"/>
<path d="M45.6783 153.657L43.4103 151.422L39.6751 163.465L42.4445 166.194L54.4197 162.27L52.1631 160.047L49.6351 160.903L44.8598 156.197L45.6783 153.657ZM47.3667 161.678L42.5477 163.308L44.1186 158.477L47.3667 161.678Z" fill="white"/>
<path d="M32.3181 146.582C35.645 144.9 36.5198 142.091 34.2962 137.693C32.2821 133.709 29.7436 132.482 26.715 133.691L28.0362 136.304C29.7867 135.724 31.0645 136.655 32.1402 138.783C33.454 141.382 33.0747 142.972 31.0186 144.011C28.9767 145.044 27.4927 144.414 26.1716 141.801C25.0887 139.659 25.0889 138.099 26.5797 137.04L25.2586 134.427C22.5042 136.143 22.0014 138.907 24.0155 142.891C26.239 147.289 29.0054 148.256 32.3181 146.582Z" fill="white"/>
<path d="M16.77 112.313L14.5155 112.703L16.5334 124.37L27.5695 122.461L25.5517 110.795L23.2971 111.184L24.8242 120.013L22.5854 120.401L21.0584 111.572L19.0088 111.926L20.5358 120.755L18.2971 121.142L16.77 112.313Z" fill="white"/>
<path d="M29.7823 74.1763L27.568 75.313C26.8968 74.5257 25.9394 73.949 24.7208 73.5572C21.2023 72.4257 18.6012 73.8247 17.0975 78.5009C15.589 83.1923 16.8769 85.8249 20.4107 86.9612C23.9598 88.1024 26.556 86.7187 28.0645 82.0273C28.569 80.4584 28.7623 79.1256 28.659 77.9832L31.0947 76.7328L29.7823 74.1763ZM21.2923 84.2195C19.1142 83.5191 18.4768 82.104 19.3976 79.2404C20.3184 76.3768 21.6763 75.6034 23.8392 76.2989C26.0174 76.9993 26.6804 78.4394 25.7645 81.2877C24.8486 84.1361 23.4857 84.9248 21.2923 84.2195Z" fill="white"/>
<path d="M34.1121 50.4081L32.2462 49.0838L25.3935 58.7392L34.5269 65.2215L41.3796 55.5662L39.5138 54.2419L34.3279 61.5487L32.4752 60.2337L37.661 52.927L35.9648 51.7231L30.779 59.0298L28.9262 57.7148L34.1121 50.4081Z" fill="white"/>
<path d="M50.8693 34.344L49.439 32.5582L40.1975 39.9594L47.1987 48.7015L56.4403 41.3002L55.01 39.5143L48.0164 45.1153L46.5961 43.3419L53.5898 37.7409L52.2895 36.1174L45.2959 41.7184L43.8757 39.945L50.8693 34.344Z" fill="white"/>
<path d="M73.0985 25.9403C73.3883 25.1535 73.402 24.3217 73.1123 23.5931C72.5034 22.0617 71.2961 21.1471 68.9321 22.087L59.7734 25.7283L63.9113 36.1359L73.4268 32.3527C75.7908 31.4128 76.3083 29.7263 75.6108 27.9718C75.132 26.7675 74.2093 26.1357 73.0985 25.9403ZM63.2181 26.5971L68.7341 24.404C69.4627 24.1144 70.1169 23.8543 70.5425 24.9248C70.974 26.0101 70.3198 26.2702 69.6061 26.554L69.5913 26.5599L64.0753 28.753L63.2181 26.5971ZM71.951 30.5461L65.7659 33.0052L64.891 30.8048L71.0761 28.3457C71.7897 28.0619 72.4439 27.8018 72.8814 28.9021C73.3188 30.0023 72.6646 30.2624 71.951 30.5461Z" fill="white"/>
<path d="M91.5605 111.25C91.3119 111.25 91.0734 111.151 90.8976 110.975C90.7218 110.799 90.623 110.561 90.623 110.312V89.6873C90.6231 89.5244 90.6656 89.3643 90.7463 89.2228C90.827 89.0814 90.9433 88.9633 91.0835 88.8804C91.2237 88.7976 91.3832 88.7526 91.5461 88.7501C91.7089 88.7476 91.8697 88.7876 92.0124 88.8661L110.762 99.1786C110.909 99.2595 111.032 99.3784 111.117 99.5229C111.203 99.6673 111.248 99.832 111.248 99.9998C111.248 100.168 111.203 100.332 111.117 100.477C111.032 100.621 110.909 100.74 110.762 100.821L92.0124 111.134C91.874 111.21 91.7186 111.25 91.5605 111.25Z" fill="white"/>
<defs>
<filter id="filter0_b_404_1088" x="-50" y="-50" width="300" height="300" filterUnits="userSpaceOnUse" color-interpolation-filters="sRGB">
<feFlood flood-opacity="0" result="BackgroundImageFix"/>
<feGaussianBlur in="BackgroundImage" stdDeviation="25"/>
<feComposite in2="SourceAlpha" operator="in" result="effect1_backgroundBlur_404_1088"/>
<feBlend mode="normal" in="SourceGraphic" in2="effect1_backgroundBlur_404_1088" result="shape"/>
</filter>
</defs>
</svg>
